<mxfile host="Electron" modified="2024-12-28T21:13:10.042Z" agent="Mozilla/5.0 (Windows NT 10.0; Win64; x64) AppleWebKit/537.36 (KHTML, like Gecko) draw.io/22.1.16 Chrome/120.0.6099.109 Electron/28.1.0 Safari/537.36" etag="yf9MLZoB_7VVe1STIWGS" version="22.1.16" type="device">
  <diagram name="Side-1" id="L_77LswnBZLIQyHjaLs6">
    <mxGraphModel dx="1098" dy="1180" grid="1" gridSize="10" guides="1" tooltips="1" connect="1" arrows="1" fold="1" page="1" pageScale="1" pageWidth="827" pageHeight="1169" math="0" shadow="0">
      <root>
        <mxCell id="0" />
        <mxCell id="1" parent="0" />
        <mxCell id="HCo-VtdF44j6H7yDx8mx-44" value="&lt;b&gt;seq Biquad example&lt;/b&gt;" style="shape=umlFrame;whiteSpace=wrap;html=1;pointerEvents=0;width=130;height=30;" vertex="1" parent="1">
          <mxGeometry width="770" height="510" as="geometry" />
        </mxCell>
        <mxCell id="HCo-VtdF44j6H7yDx8mx-10" value="&lt;font style=&quot;font-size: 11px;&quot;&gt;&amp;lt;&amp;lt;FPGA&amp;gt;&amp;gt;&lt;br&gt;BiquadFilterEnd&lt;/font&gt;" style="shape=umlLifeline;perimeter=lifelinePerimeter;whiteSpace=wrap;html=1;container=0;dropTarget=0;collapsible=0;recursiveResize=0;outlineConnect=0;portConstraint=eastwest;newEdgeStyle={&quot;edgeStyle&quot;:&quot;elbowEdgeStyle&quot;,&quot;elbow&quot;:&quot;vertical&quot;,&quot;curved&quot;:0,&quot;rounded&quot;:0};" vertex="1" parent="1">
          <mxGeometry x="580" y="40" width="100" height="470" as="geometry" />
        </mxCell>
        <mxCell id="HCo-VtdF44j6H7yDx8mx-24" value="" style="html=1;points=[];perimeter=orthogonalPerimeter;outlineConnect=0;targetShapes=umlLifeline;portConstraint=eastwest;newEdgeStyle={&quot;edgeStyle&quot;:&quot;elbowEdgeStyle&quot;,&quot;elbow&quot;:&quot;vertical&quot;,&quot;curved&quot;:0,&quot;rounded&quot;:0};" vertex="1" parent="HCo-VtdF44j6H7yDx8mx-10">
          <mxGeometry x="45" y="250.29" width="10" height="209.71" as="geometry" />
        </mxCell>
        <mxCell id="HCo-VtdF44j6H7yDx8mx-25" value="IsValid(true)" style="html=1;verticalAlign=bottom;endArrow=block;curved=0;rounded=0;" edge="1" parent="HCo-VtdF44j6H7yDx8mx-10">
          <mxGeometry width="80" relative="1" as="geometry">
            <mxPoint x="-124" y="250" as="sourcePoint" />
            <mxPoint x="46" y="250" as="targetPoint" />
          </mxGeometry>
        </mxCell>
        <mxCell id="HCo-VtdF44j6H7yDx8mx-26" value="ReadData()" style="html=1;verticalAlign=bottom;endArrow=block;curved=0;rounded=0;" edge="1" parent="HCo-VtdF44j6H7yDx8mx-10">
          <mxGeometry width="80" relative="1" as="geometry">
            <mxPoint x="45" y="270.28999999999996" as="sourcePoint" />
            <mxPoint x="-121" y="270.28999999999996" as="targetPoint" />
          </mxGeometry>
        </mxCell>
        <mxCell id="HCo-VtdF44j6H7yDx8mx-27" value="return data" style="html=1;verticalAlign=bottom;endArrow=open;dashed=1;endSize=8;curved=0;rounded=0;" edge="1" parent="HCo-VtdF44j6H7yDx8mx-10">
          <mxGeometry relative="1" as="geometry">
            <mxPoint x="-121" y="300.28999999999996" as="sourcePoint" />
            <mxPoint x="45" y="300.28999999999996" as="targetPoint" />
          </mxGeometry>
        </mxCell>
        <mxCell id="HCo-VtdF44j6H7yDx8mx-28" value="Acknowledge" style="html=1;verticalAlign=bottom;endArrow=block;curved=0;rounded=0;" edge="1" parent="HCo-VtdF44j6H7yDx8mx-10">
          <mxGeometry width="80" relative="1" as="geometry">
            <mxPoint x="45" y="320.29" as="sourcePoint" />
            <mxPoint x="-125" y="320.29" as="targetPoint" />
          </mxGeometry>
        </mxCell>
        <mxCell id="HCo-VtdF44j6H7yDx8mx-33" value="" style="html=1;points=[[0,0,0,0,5],[0,1,0,0,-5],[1,0,0,0,5],[1,1,0,0,-5]];perimeter=orthogonalPerimeter;outlineConnect=0;targetShapes=umlLifeline;portConstraint=eastwest;newEdgeStyle={&quot;curved&quot;:0,&quot;rounded&quot;:0};" vertex="1" parent="HCo-VtdF44j6H7yDx8mx-10">
          <mxGeometry x="50" y="340" width="10" height="20" as="geometry" />
        </mxCell>
        <mxCell id="HCo-VtdF44j6H7yDx8mx-34" value="ProcessSample()" style="html=1;align=left;spacingLeft=2;endArrow=block;rounded=0;edgeStyle=orthogonalEdgeStyle;curved=0;rounded=0;" edge="1" parent="HCo-VtdF44j6H7yDx8mx-10" target="HCo-VtdF44j6H7yDx8mx-33">
          <mxGeometry relative="1" as="geometry">
            <mxPoint x="55" y="330" as="sourcePoint" />
            <Array as="points">
              <mxPoint x="85" y="330" />
              <mxPoint x="85" y="340" />
            </Array>
          </mxGeometry>
        </mxCell>
        <mxCell id="HCo-VtdF44j6H7yDx8mx-42" value="" style="html=1;points=[[0,0,0,0,5],[0,1,0,0,-5],[1,0,0,0,5],[1,1,0,0,-5]];perimeter=orthogonalPerimeter;outlineConnect=0;targetShapes=umlLifeline;portConstraint=eastwest;newEdgeStyle={&quot;curved&quot;:0,&quot;rounded&quot;:0};" vertex="1" parent="HCo-VtdF44j6H7yDx8mx-10">
          <mxGeometry x="40" y="430" width="10" height="20" as="geometry" />
        </mxCell>
        <mxCell id="HCo-VtdF44j6H7yDx8mx-1" value="&lt;font style=&quot;font-size: 11px;&quot;&gt;&amp;lt;&amp;lt;PS&amp;gt;&amp;gt;&lt;br&gt;Main&lt;br&gt;&lt;/font&gt;" style="shape=umlLifeline;perimeter=lifelinePerimeter;whiteSpace=wrap;html=1;container=0;dropTarget=0;collapsible=0;recursiveResize=0;outlineConnect=0;portConstraint=eastwest;newEdgeStyle={&quot;edgeStyle&quot;:&quot;elbowEdgeStyle&quot;,&quot;elbow&quot;:&quot;vertical&quot;,&quot;curved&quot;:0,&quot;rounded&quot;:0};" vertex="1" parent="1">
          <mxGeometry x="40" y="40" width="100" height="470" as="geometry" />
        </mxCell>
        <mxCell id="HCo-VtdF44j6H7yDx8mx-2" value="" style="html=1;points=[];perimeter=orthogonalPerimeter;outlineConnect=0;targetShapes=umlLifeline;portConstraint=eastwest;newEdgeStyle={&quot;edgeStyle&quot;:&quot;elbowEdgeStyle&quot;,&quot;elbow&quot;:&quot;vertical&quot;,&quot;curved&quot;:0,&quot;rounded&quot;:0};" vertex="1" parent="HCo-VtdF44j6H7yDx8mx-1">
          <mxGeometry x="45" y="70" width="10" height="390" as="geometry" />
        </mxCell>
        <mxCell id="HCo-VtdF44j6H7yDx8mx-3" value="Start" style="html=1;verticalAlign=bottom;startArrow=oval;endArrow=block;startSize=8;edgeStyle=elbowEdgeStyle;elbow=vertical;curved=0;rounded=0;" edge="1" parent="HCo-VtdF44j6H7yDx8mx-1" target="HCo-VtdF44j6H7yDx8mx-2">
          <mxGeometry relative="1" as="geometry">
            <mxPoint x="-15" y="70" as="sourcePoint" />
          </mxGeometry>
        </mxCell>
        <mxCell id="HCo-VtdF44j6H7yDx8mx-4" value="" style="html=1;points=[];perimeter=orthogonalPerimeter;outlineConnect=0;targetShapes=umlLifeline;portConstraint=eastwest;newEdgeStyle={&quot;edgeStyle&quot;:&quot;elbowEdgeStyle&quot;,&quot;elbow&quot;:&quot;vertical&quot;,&quot;curved&quot;:0,&quot;rounded&quot;:0};" vertex="1" parent="HCo-VtdF44j6H7yDx8mx-1">
          <mxGeometry x="50" y="380" width="10" height="40" as="geometry" />
        </mxCell>
        <mxCell id="HCo-VtdF44j6H7yDx8mx-37" value="" style="html=1;points=[[0,0,0,0,5],[0,1,0,0,-5],[1,0,0,0,5],[1,1,0,0,-5]];perimeter=orthogonalPerimeter;outlineConnect=0;targetShapes=umlLifeline;portConstraint=eastwest;newEdgeStyle={&quot;curved&quot;:0,&quot;rounded&quot;:0};" vertex="1" parent="HCo-VtdF44j6H7yDx8mx-1">
          <mxGeometry x="55" y="400" width="10" height="10" as="geometry" />
        </mxCell>
        <mxCell id="HCo-VtdF44j6H7yDx8mx-38" value="StopWait()" style="html=1;align=left;spacingLeft=2;endArrow=block;rounded=0;edgeStyle=orthogonalEdgeStyle;curved=0;rounded=0;" edge="1" target="HCo-VtdF44j6H7yDx8mx-37" parent="HCo-VtdF44j6H7yDx8mx-1">
          <mxGeometry relative="1" as="geometry">
            <mxPoint x="60" y="390" as="sourcePoint" />
            <Array as="points">
              <mxPoint x="90" y="390" />
              <mxPoint x="90" y="400" />
              <mxPoint x="60" y="400" />
            </Array>
          </mxGeometry>
        </mxCell>
        <mxCell id="HCo-VtdF44j6H7yDx8mx-40" value="" style="html=1;points=[[0,0,0,0,5],[0,1,0,0,-5],[1,0,0,0,5],[1,1,0,0,-5]];perimeter=orthogonalPerimeter;outlineConnect=0;targetShapes=umlLifeline;portConstraint=eastwest;newEdgeStyle={&quot;curved&quot;:0,&quot;rounded&quot;:0};" vertex="1" parent="HCo-VtdF44j6H7yDx8mx-1">
          <mxGeometry x="50" y="350" width="10" height="10" as="geometry" />
        </mxCell>
        <mxCell id="HCo-VtdF44j6H7yDx8mx-41" value="Wait()" style="html=1;align=left;spacingLeft=2;endArrow=block;rounded=0;edgeStyle=orthogonalEdgeStyle;curved=0;rounded=0;" edge="1" target="HCo-VtdF44j6H7yDx8mx-40" parent="HCo-VtdF44j6H7yDx8mx-1">
          <mxGeometry relative="1" as="geometry">
            <mxPoint x="55" y="340" as="sourcePoint" />
            <Array as="points">
              <mxPoint x="85" y="340" />
              <mxPoint x="85" y="350" />
              <mxPoint x="55" y="350" />
            </Array>
          </mxGeometry>
        </mxCell>
        <mxCell id="HCo-VtdF44j6H7yDx8mx-5" value="&lt;font style=&quot;font-size: 11px;&quot;&gt;&amp;lt;&amp;lt;FPGA&amp;gt;&amp;gt;&lt;br&gt;BiquadFilterStart&lt;/font&gt;" style="shape=umlLifeline;perimeter=lifelinePerimeter;whiteSpace=wrap;html=1;container=0;dropTarget=0;collapsible=0;recursiveResize=0;outlineConnect=0;portConstraint=eastwest;newEdgeStyle={&quot;edgeStyle&quot;:&quot;elbowEdgeStyle&quot;,&quot;elbow&quot;:&quot;vertical&quot;,&quot;curved&quot;:0,&quot;rounded&quot;:0};" vertex="1" parent="1">
          <mxGeometry x="220" y="40" width="100" height="470" as="geometry" />
        </mxCell>
        <mxCell id="HCo-VtdF44j6H7yDx8mx-6" value="" style="html=1;points=[];perimeter=orthogonalPerimeter;outlineConnect=0;targetShapes=umlLifeline;portConstraint=eastwest;newEdgeStyle={&quot;edgeStyle&quot;:&quot;elbowEdgeStyle&quot;,&quot;elbow&quot;:&quot;vertical&quot;,&quot;curved&quot;:0,&quot;rounded&quot;:0};" vertex="1" parent="HCo-VtdF44j6H7yDx8mx-5">
          <mxGeometry x="45" y="80" width="10" height="120" as="geometry" />
        </mxCell>
        <mxCell id="HCo-VtdF44j6H7yDx8mx-19" value="" style="html=1;points=[];perimeter=orthogonalPerimeter;outlineConnect=0;targetShapes=umlLifeline;portConstraint=eastwest;newEdgeStyle={&quot;edgeStyle&quot;:&quot;elbowEdgeStyle&quot;,&quot;elbow&quot;:&quot;vertical&quot;,&quot;curved&quot;:0,&quot;rounded&quot;:0};" vertex="1" parent="HCo-VtdF44j6H7yDx8mx-5">
          <mxGeometry x="49" y="150" width="10" height="30" as="geometry" />
        </mxCell>
        <mxCell id="HCo-VtdF44j6H7yDx8mx-29" value="" style="html=1;points=[[0,0,0,0,5],[0,1,0,0,-5],[1,0,0,0,5],[1,1,0,0,-5]];perimeter=orthogonalPerimeter;outlineConnect=0;targetShapes=umlLifeline;portConstraint=eastwest;newEdgeStyle={&quot;curved&quot;:0,&quot;rounded&quot;:0};" vertex="1" parent="HCo-VtdF44j6H7yDx8mx-5">
          <mxGeometry x="50" y="100" width="10" height="20" as="geometry" />
        </mxCell>
        <mxCell id="HCo-VtdF44j6H7yDx8mx-30" value="ProcessSample()" style="html=1;align=left;spacingLeft=2;endArrow=block;rounded=0;edgeStyle=orthogonalEdgeStyle;curved=0;rounded=0;" edge="1" target="HCo-VtdF44j6H7yDx8mx-29" parent="HCo-VtdF44j6H7yDx8mx-5" source="HCo-VtdF44j6H7yDx8mx-6">
          <mxGeometry relative="1" as="geometry">
            <mxPoint x="55" y="60" as="sourcePoint" />
            <Array as="points">
              <mxPoint x="85" y="90" />
              <mxPoint x="85" y="100" />
            </Array>
          </mxGeometry>
        </mxCell>
        <mxCell id="HCo-VtdF44j6H7yDx8mx-7" value="WriteSample(sample)" style="html=1;verticalAlign=bottom;endArrow=block;edgeStyle=elbowEdgeStyle;elbow=vertical;curved=0;rounded=0;" edge="1" parent="1" source="HCo-VtdF44j6H7yDx8mx-2" target="HCo-VtdF44j6H7yDx8mx-6">
          <mxGeometry relative="1" as="geometry">
            <mxPoint x="195" y="130" as="sourcePoint" />
            <Array as="points">
              <mxPoint x="180" y="120" />
            </Array>
            <mxPoint x="250" y="120" as="targetPoint" />
          </mxGeometry>
        </mxCell>
        <mxCell id="HCo-VtdF44j6H7yDx8mx-8" value="&lt;font style=&quot;font-size: 10px;&quot;&gt;&amp;lt;&amp;lt;FPGA&amp;gt;&amp;gt;&lt;br&gt;BiquadFilterBetween0&lt;/font&gt;" style="shape=umlLifeline;perimeter=lifelinePerimeter;whiteSpace=wrap;html=1;container=0;dropTarget=0;collapsible=0;recursiveResize=0;outlineConnect=0;portConstraint=eastwest;newEdgeStyle={&quot;edgeStyle&quot;:&quot;elbowEdgeStyle&quot;,&quot;elbow&quot;:&quot;vertical&quot;,&quot;curved&quot;:0,&quot;rounded&quot;:0};" vertex="1" parent="1">
          <mxGeometry x="400" y="40" width="100" height="470" as="geometry" />
        </mxCell>
        <mxCell id="HCo-VtdF44j6H7yDx8mx-9" value="" style="html=1;points=[];perimeter=orthogonalPerimeter;outlineConnect=0;targetShapes=umlLifeline;portConstraint=eastwest;newEdgeStyle={&quot;edgeStyle&quot;:&quot;elbowEdgeStyle&quot;,&quot;elbow&quot;:&quot;vertical&quot;,&quot;curved&quot;:0,&quot;rounded&quot;:0};" vertex="1" parent="HCo-VtdF44j6H7yDx8mx-8">
          <mxGeometry x="45" y="130" width="10" height="190" as="geometry" />
        </mxCell>
        <mxCell id="HCo-VtdF44j6H7yDx8mx-23" value="" style="html=1;points=[];perimeter=orthogonalPerimeter;outlineConnect=0;targetShapes=umlLifeline;portConstraint=eastwest;newEdgeStyle={&quot;edgeStyle&quot;:&quot;elbowEdgeStyle&quot;,&quot;elbow&quot;:&quot;vertical&quot;,&quot;curved&quot;:0,&quot;rounded&quot;:0};" vertex="1" parent="HCo-VtdF44j6H7yDx8mx-8">
          <mxGeometry x="49" y="270" width="10" height="30" as="geometry" />
        </mxCell>
        <mxCell id="HCo-VtdF44j6H7yDx8mx-31" value="" style="html=1;points=[[0,0,0,0,5],[0,1,0,0,-5],[1,0,0,0,5],[1,1,0,0,-5]];perimeter=orthogonalPerimeter;outlineConnect=0;targetShapes=umlLifeline;portConstraint=eastwest;newEdgeStyle={&quot;curved&quot;:0,&quot;rounded&quot;:0};" vertex="1" parent="HCo-VtdF44j6H7yDx8mx-8">
          <mxGeometry x="50" y="220" width="10" height="20" as="geometry" />
        </mxCell>
        <mxCell id="HCo-VtdF44j6H7yDx8mx-32" value="ProcessSample()" style="html=1;align=left;spacingLeft=2;endArrow=block;rounded=0;edgeStyle=orthogonalEdgeStyle;curved=0;rounded=0;" edge="1" parent="HCo-VtdF44j6H7yDx8mx-8">
          <mxGeometry relative="1" as="geometry">
            <mxPoint x="55" y="210" as="sourcePoint" />
            <Array as="points">
              <mxPoint x="85" y="210" />
              <mxPoint x="85" y="220" />
            </Array>
            <mxPoint x="60" y="220" as="targetPoint" />
          </mxGeometry>
        </mxCell>
        <mxCell id="HCo-VtdF44j6H7yDx8mx-18" value="IsValid(true)" style="html=1;verticalAlign=bottom;endArrow=block;curved=0;rounded=0;" edge="1" parent="1">
          <mxGeometry width="80" relative="1" as="geometry">
            <mxPoint x="275" y="169.71" as="sourcePoint" />
            <mxPoint x="445" y="169.71" as="targetPoint" />
          </mxGeometry>
        </mxCell>
        <mxCell id="HCo-VtdF44j6H7yDx8mx-20" value="ReadSample()" style="html=1;verticalAlign=bottom;endArrow=block;curved=0;rounded=0;" edge="1" parent="1">
          <mxGeometry width="80" relative="1" as="geometry">
            <mxPoint x="445" y="190" as="sourcePoint" />
            <mxPoint x="279" y="190" as="targetPoint" />
          </mxGeometry>
        </mxCell>
        <mxCell id="HCo-VtdF44j6H7yDx8mx-21" value="return sample" style="html=1;verticalAlign=bottom;endArrow=open;dashed=1;endSize=8;curved=0;rounded=0;" edge="1" parent="1">
          <mxGeometry relative="1" as="geometry">
            <mxPoint x="279" y="220" as="sourcePoint" />
            <mxPoint x="445" y="220" as="targetPoint" />
          </mxGeometry>
        </mxCell>
        <mxCell id="HCo-VtdF44j6H7yDx8mx-22" value="Acknowledge" style="html=1;verticalAlign=bottom;endArrow=block;curved=0;rounded=0;" edge="1" parent="1">
          <mxGeometry width="80" relative="1" as="geometry">
            <mxPoint x="445" y="240" as="sourcePoint" />
            <mxPoint x="275" y="240" as="targetPoint" />
          </mxGeometry>
        </mxCell>
        <mxCell id="HCo-VtdF44j6H7yDx8mx-35" value="Interrupt" style="html=1;verticalAlign=bottom;endArrow=block;curved=0;rounded=0;" edge="1" parent="1">
          <mxGeometry width="80" relative="1" as="geometry">
            <mxPoint x="625" y="420" as="sourcePoint" />
            <mxPoint x="100" y="420" as="targetPoint" />
          </mxGeometry>
        </mxCell>
        <mxCell id="HCo-VtdF44j6H7yDx8mx-36" value="ReadSample()" style="html=1;verticalAlign=bottom;endArrow=block;curved=0;rounded=0;" edge="1" parent="1" target="HCo-VtdF44j6H7yDx8mx-42">
          <mxGeometry width="80" relative="1" as="geometry">
            <mxPoint x="95" y="470" as="sourcePoint" />
            <mxPoint x="590" y="470" as="targetPoint" />
          </mxGeometry>
        </mxCell>
        <mxCell id="HCo-VtdF44j6H7yDx8mx-43" value="return sample" style="html=1;verticalAlign=bottom;endArrow=open;dashed=1;endSize=8;curved=0;rounded=0;" edge="1" parent="1">
          <mxGeometry relative="1" as="geometry">
            <mxPoint x="620" y="490" as="sourcePoint" />
            <mxPoint x="95" y="490" as="targetPoint" />
          </mxGeometry>
        </mxCell>
      </root>
    </mxGraphModel>
  </diagram>
</mxfile>
